<svg xmlns="http://www.w3.org/2000/svg" width="61.404" height="53.968" viewBox="0 0 61.404 53.968">
  <g id="logo" transform="translate(0 0)">
    <path id="Path_9" data-name="Path 9" d="M19.783,35.979H52.409a1.8,1.8,0,0,0,1.73-1.3l7.2-25.185A1.8,1.8,0,0,0,59.6,7.2H15.635L14.349,1.409A1.8,1.8,0,0,0,12.592,0H1.8a1.8,1.8,0,0,0,0,3.6h9.351l6.495,29.228a5.4,5.4,0,0,0,2.144,10.349H52.409a1.8,1.8,0,0,0,0-3.6H19.788a1.8,1.8,0,0,1,0-3.6ZM57.22,10.794,51.052,32.381H21.231l-4.8-21.587Zm0,0" fill="#e94d90"/>
    <path id="Path_10" data-name="Path 10" d="M150,365.4a5.4,5.4,0,1,0,5.4-5.4A5.4,5.4,0,0,0,150,365.4Zm5.4-1.8a1.8,1.8,0,1,1-1.8,1.8A1.8,1.8,0,0,1,155.4,363.6Zm0,0" transform="translate(-132.011 -316.825)" fill="#e94d90"/>
    <path id="Path_11" data-name="Path 11" d="M362,365.4a5.4,5.4,0,1,0,5.4-5.4A5.4,5.4,0,0,0,362,365.4Zm5.4-1.8a1.8,1.8,0,1,1-1.8,1.8A1.8,1.8,0,0,1,367.4,363.6Zm0,0" transform="translate(-318.586 -316.825)" fill="#e94d90"/>
  </g>
</svg>
